{
	"bufferViews":[{
		"buffer":0,
		"byteOffset":0,
		"byteLength":1820
	},
	{
		"buffer":1,
		"byteOffset":0,
		"byteLength":7200,
		"target":34963
	},
	{
		"buffer":1,
		"byteOffset":7200,
		"byteLength":23552,
		"target":34962,
		"byteStride":32
	},
	{
		"buffer":1,
		"byteOffset":30752,
		"byteLength":5888,
		"target":34962
	},
	{
		"buffer":1,
		"byteOffset":36640,
		"byteLength":11776,
		"target":34962
	},
	{
		"buffer":2,
		"byteOffset":0,
		"byteLength":1820
	},
	{
		"buffer":3,
		"byteOffset":0,
		"byteLength":1456
	},
	{
		"buffer":3,
		"byteOffset":1456,
		"byteLength":1820
	},
	{
		"buffer":4,
		"byteOffset":0,
		"byteLength":1456
	},
	{
		"buffer":4,
		"byteOffset":1456,
		"byteLength":1820
	},
	{
		"buffer":5,
		"byteOffset":0,
		"byteLength":1456
	},
	{
		"buffer":5,
		"byteOffset":1456,
		"byteLength":1820
	},
	{
		"buffer":6,
		"byteOffset":0,
		"byteLength":1456
	},
	{
		"buffer":7,
		"byteOffset":0,
		"byteLength":384
	}],
	"asset":{
		"version":"2.0",
		"generator":"Created using the official Cinema 4D glTF Exporter 1.000x284978"
	},
	"scenes":[{
		"nodes":[0,
		1,
		3]
	}],
	"nodes":[{
		"name":"Null",
		"rotation":[0.0,
		0.0,
		0.0,
		-1.0],
		"translation":[0.000002432685960229719,
		2.3636889457702638,
		-0.040540214627981189],
		"scale":[1.0,
		1.0,
		1.0]
	},
	{
		"name":"Base",
		"rotation":[0.0,
		0.0,
		0.0,
		-1.0],
		"translation":[0.0,
		1.007800817489624,
		0.0],
		"scale":[1.0,
		1.0,
		1.0],
		"children":[2]
	},
	{
		"name":"Base",
		"mesh":0,
		"skin":0
	},
	{
		"name":"Root",
		"rotation":[0.0,
		0.0,
		0.0,
		-1.0],
		"translation":[0.0,
		-0.0057327705435454849,
		0.0024407191667705776],
		"scale":[1.0,
		1.0,
		1.0],
		"children":[4]
	},
	{
		"name":"Joint.1",
		"rotation":[0.0012564202770590783,
		0.7354444861412048,
		-0.6775831580162048,
		0.0009628740954212844],
		"translation":[4.067693297089618e-20,
		0.0,
		5.551114999048691e-19],
		"scale":[1.0,
		1.0,
		1.0],
		"children":[5]
	},
	{
		"name":"Joint.2",
		"rotation":[-0.0400744192302227,
		0.0003049338993150741,
		-0.00018661741341929883,
		-0.9991966485977173],
		"translation":[0.0001443013024982065,
		0.04609310254454613,
		-0.49285969138145449],
		"scale":[1.0,
		1.0,
		1.0],
		"children":[6]
	},
	{
		"name":"Joint.3",
		"rotation":[0.04678704962134361,
		0.0015230148565024138,
		-0.2771221399307251,
		0.9596936702728272],
		"translation":[0.000025650106181274169,
		0.007639495190232992,
		-0.5017479658126831],
		"scale":[1.0,
		1.0,
		1.0],
		"children":[7]
	},
	{
		"name":"Joint.4",
		"rotation":[0.04395252466201782,
		0.012322593480348587,
		-0.16259410977363587,
		-0.9856365919113159],
		"translation":[0.010448934510350228,
		-0.03820415586233139,
		-0.5001022815704346],
		"scale":[1.0,
		1.0,
		1.0],
		"children":[8]
	},
	{
		"name":"Joint.5",
		"rotation":[0.014462077990174294,
		-0.02018936723470688,
		0.4539116322994232,
		-0.8907005190849304],
		"translation":[-0.007366071920841932,
		0.005936932750046253,
		-0.4996736943721771],
		"scale":[1.0,
		1.0,
		1.0],
		"children":[9]
	},
	{
		"name":"Joint.6",
		"rotation":[0.0046405973844230179,
		-0.0007758432766422629,
		-0.16205614805221559,
		0.9867703318595886],
		"translation":[0.00228402903303504,
		0.019585397094488145,
		-0.49983903765678408],
		"scale":[1.0,
		1.0,
		1.0]
	}],
	"meshes":[{
		"name":"Base",
		"primitives":[{
			"attributes":{
				"POSITION":3,
				"NORMAL":4,
				"TEXCOORD_0":5,
				"JOINTS_0":6,
				"WEIGHTS_0":7
			},
			"material":0,
			"indices":2
		}]
	}],
	"skins":[{
		"inverseBindMatrices":24,
		"joints":[4,
		5,
		6,
		7,
		8,
		9]
	}],
	"accessors":[{
		"bufferView":0,
		"type":"SCALAR",
		"max":[3.0],
		"componentType":5126,
		"count":91,
		"byteOffset":0,
		"min":[0.0]
	},
	{
		"bufferView":0,
		"type":"VEC4",
		"max":[1.0,
		0.0,
		8.65589718592968e-17,
		0.6862425804138184],
		"componentType":5126,
		"count":91,
		"byteOffset":364,
		"min":[-0.678394615650177,
		-8.65589718592968e-17,
		0.0,
		-1.0]
	},
	{
		"bufferView":1,
		"type":"SCALAR",
		"max":[735],
		"componentType":5123,
		"count":3600,
		"byteOffset":0,
		"min":[0]
	},
	{
		"bufferView":2,
		"type":"VEC3",
		"max":[0.3747602701187134,
		1.386757254600525,
		0.3489677309989929],
		"componentType":5126,
		"count":736,
		"byteOffset":0,
		"min":[-0.41336187720298769,
		-1.0027827024459839,
		-0.4440808892250061]
	},
	{
		"bufferView":2,
		"type":"VEC3",
		"max":[0.999999463558197,
		0.9999901056289673,
		0.9999740123748779],
		"componentType":5126,
		"count":736,
		"byteOffset":12,
		"min":[-0.9999985694885254,
		-0.9999954104423523,
		-0.9999909400939941]
	},
	{
		"bufferView":2,
		"type":"VEC2",
		"max":[1.0,
		1.0],
		"componentType":5126,
		"count":736,
		"byteOffset":24,
		"min":[0.0,
		0.0]
	},
	{
		"bufferView":3,
		"type":"VEC4",
		"max":[5,
		4,
		3,
		3],
		"componentType":5123,
		"count":736,
		"byteOffset":0,
		"min":[1,
		2,
		0,
		0]
	},
	{
		"bufferView":4,
		"type":"VEC4",
		"max":[0.9971770644187927,
		0.4943312704563141,
		0.0,
		0.0],
		"componentType":5126,
		"count":736,
		"byteOffset":0,
		"min":[0.5056381821632385,
		0.0027924010064452888,
		0.0,
		0.0]
	},
	{
		"bufferView":5,
		"type":"SCALAR",
		"max":[3.0],
		"componentType":5126,
		"count":91,
		"byteOffset":0,
		"min":[0.0]
	},
	{
		"bufferView":5,
		"type":"VEC4",
		"max":[0.3609201908111572,
		0.42551666498184206,
		0.10972769558429718,
		0.9956231117248535],
		"componentType":5126,
		"count":91,
		"byteOffset":364,
		"min":[-0.17591592669487,
		-0.42168259620666506,
		-0.04354892671108246,
		-0.9999948143959045]
	},
	{
		"bufferView":6,
		"type":"SCALAR",
		"max":[3.0],
		"componentType":5126,
		"count":91,
		"byteOffset":0,
		"min":[0.0]
	},
	{
		"bufferView":6,
		"type":"VEC3",
		"max":[0.001338280620984733,
		0.008092053234577179,
		-0.5017408132553101],
		"componentType":5126,
		"count":91,
		"byteOffset":364,
		"min":[-0.0013975653564557434,
		0.007089672144502401,
		-0.5017542243003845]
	},
	{
		"bufferView":7,
		"type":"SCALAR",
		"max":[3.0],
		"componentType":5126,
		"count":91,
		"byteOffset":0,
		"min":[0.0]
	},
	{
		"bufferView":7,
		"type":"VEC4",
		"max":[0.04549364745616913,
		0.0012619186891242862,
		-0.2771261930465698,
		0.9607180953025818],
		"componentType":5126,
		"count":91,
		"byteOffset":364,
		"min":[-0.28915953636169436,
		-0.4469014108181,
		-0.5099238157272339,
		0.687730073928833]
	},
	{
		"bufferView":8,
		"type":"SCALAR",
		"max":[3.0],
		"componentType":5126,
		"count":91,
		"byteOffset":0,
		"min":[0.0]
	},
	{
		"bufferView":8,
		"type":"VEC3",
		"max":[0.01329362764954567,
		-0.03818739950656891,
		-0.4999717175960541],
		"componentType":5126,
		"count":91,
		"byteOffset":364,
		"min":[0.010433007963001728,
		-0.03904437646269798,
		-0.5001036524772644]
	},
	{
		"bufferView":9,
		"type":"SCALAR",
		"max":[3.0],
		"componentType":5126,
		"count":91,
		"byteOffset":0,
		"min":[0.0]
	},
	{
		"bufferView":9,
		"type":"VEC4",
		"max":[0.6110630631446838,
		0.07785605639219284,
		0.26247572898864748,
		0.9707565307617188],
		"componentType":5126,
		"count":91,
		"byteOffset":364,
		"min":[-0.029377901926636697,
		-0.012905689887702465,
		-0.16380277276039124,
		-0.9865916967391968]
	},
	{
		"bufferView":10,
		"type":"SCALAR",
		"max":[3.0],
		"componentType":5126,
		"count":91,
		"byteOffset":0,
		"min":[0.0]
	},
	{
		"bufferView":10,
		"type":"VEC3",
		"max":[-0.007352495566010475,
		0.007974511943757534,
		-0.4996153712272644],
		"componentType":5126,
		"count":91,
		"byteOffset":364,
		"min":[-0.009321174584329129,
		0.005922673270106316,
		-0.4996738135814667]
	},
	{
		"bufferView":11,
		"type":"SCALAR",
		"max":[3.0],
		"componentType":5126,
		"count":91,
		"byteOffset":0,
		"min":[0.0]
	},
	{
		"bufferView":11,
		"type":"VEC4",
		"max":[0.5542199611663818,
		0.000806035241112113,
		0.4542313516139984,
		0.8907809257507324],
		"componentType":5126,
		"count":91,
		"byteOffset":364,
		"min":[-0.00233337446115911,
		-0.34658053517341616,
		-0.45430952310562136,
		-0.8908529877662659]
	},
	{
		"bufferView":12,
		"type":"SCALAR",
		"max":[3.0],
		"componentType":5126,
		"count":91,
		"byteOffset":0,
		"min":[0.0]
	},
	{
		"bufferView":12,
		"type":"VEC3",
		"max":[0.002511844504624605,
		0.02010626718401909,
		-0.4998171925544739],
		"componentType":5126,
		"count":91,
		"byteOffset":364,
		"min":[0.002282561967149377,
		0.019579606130719186,
		-0.49983927607536318]
	},
	{
		"bufferView":13,
		"type":"MAT4",
		"max":[-0.07021614909172058,
		0.00351722096092999,
		0.022745445370674135,
		0.0,
		0.027918562293052675,
		0.08175895363092423,
		-0.9957669973373413,
		0.0,
		0.9975181221961975,
		-0.07033601403236389,
		0.08905445784330368,
		0.0,
		0.022418202832341195,
		0.08529798686504364,
		1.4842174053192139,
		1.0],
		"componentType":5126,
		"count":6,
		"byteOffset":0,
		"min":[-0.9999949932098389,
		-0.9971258640289307,
		-0.03783855587244034,
		0.0,
		-0.011684857308864594,
		-0.08757057785987854,
		-0.9999985694885254,
		0.0,
		-0.00351731083355844,
		-0.9999924302101135,
		-0.08176025748252869,
		0.0,
		0.0001046935431077145,
		-0.0438937284052372,
		-1.00994074344635,
		1.0]
	}],
	"animations":[{
		"samplers":[{
			"input":0,
			"interpolation":"LINEAR",
			"output":1
		},
		{
			"input":8,
			"interpolation":"LINEAR",
			"output":9
		},
		{
			"input":10,
			"interpolation":"LINEAR",
			"output":11
		},
		{
			"input":12,
			"interpolation":"LINEAR",
			"output":13
		},
		{
			"input":14,
			"interpolation":"LINEAR",
			"output":15
		},
		{
			"input":16,
			"interpolation":"LINEAR",
			"output":17
		},
		{
			"input":18,
			"interpolation":"LINEAR",
			"output":19
		},
		{
			"input":20,
			"interpolation":"LINEAR",
			"output":21
		},
		{
			"input":22,
			"interpolation":"LINEAR",
			"output":23
		}],
		"channels":[{
			"sampler":0,
			"target":{
				"node":0,
				"path":"rotation"
			}
		},
		{
			"sampler":1,
			"target":{
				"node":5,
				"path":"rotation"
			}
		},
		{
			"sampler":2,
			"target":{
				"node":6,
				"path":"translation"
			}
		},
		{
			"sampler":3,
			"target":{
				"node":6,
				"path":"rotation"
			}
		},
		{
			"sampler":4,
			"target":{
				"node":7,
				"path":"translation"
			}
		},
		{
			"sampler":5,
			"target":{
				"node":7,
				"path":"rotation"
			}
		},
		{
			"sampler":6,
			"target":{
				"node":8,
				"path":"translation"
			}
		},
		{
			"sampler":7,
			"target":{
				"node":8,
				"path":"rotation"
			}
		},
		{
			"sampler":8,
			"target":{
				"node":9,
				"path":"translation"
			}
		}]
	}],
	"buffers":[{
		"uri":"data:application/octet-stream;base64,",
		"byteLength":1820
	},
	{
		"uri":"data:application/octet-stream;base64,",
		"byteLength":48416
	},
	{
		"uri":"data:application/octet-stream;base64,",
		"byteLength":1820
	},
	{
		"uri":"data:application/octet-stream;base64,",
		"byteLength":3276
	},
	{
		"uri":"data:application/octet-stream;base64,",
		"byteLength":3276
	},
	{
		"uri":"data:application/octet-stream;base64,",
		"byteLength":3276
	},
	{
		"uri":"data:application/octet-stream;base64,",
		"byteLength":1456
	},
	{
		"uri":"data:application/octet-stream;base64,",
		"byteLength":384
	}],
	"materials":[{
		"pbrMetallicRoughness":{
			"baseColorFactor":[0.8,
			0.8,
			0.8,
			1.0],
			"metallicFactor":0.0,
			"roughnessFactor":0.5
		},
		"emissiveFactor":[0.0,
		0.0,
		0.0],
		"alphaMode":"OPAQUE",
		"doubleSided":false,
		"name":"Mat"
	}]
}